<?xml version="1.0" standalone="no"?>
<!DOCTYPE svg PUBLIC "-//W3C//DTD SVG 20010904//EN"
 "http://www.w3.org/TR/2001/REC-SVG-20010904/DTD/svg10.dtd">
<svg version="1.0" xmlns="http://www.w3.org/2000/svg"
 width="512.000000pt" height="512.000000pt" viewBox="0 0 512.000000 512.000000"
 preserveAspectRatio="xMidYMid meet">
<metadata>
Created by potrace 1.14, written by Peter Selinger 2001-2017
</metadata>
<g transform="translate(0.000000,512.000000) scale(0.100000,-0.100000)"
fill="#000000" stroke="none">
<path d="M2325 5109 c-498 -46 -991 -248 -1380 -564 -121 -98 -334 -318 -423
-437 -266 -355 -429 -748 -499 -1198 -24 -161 -24 -539 0 -700 74 -476 262
-909 552 -1265 227 -279 519 -512 846 -674 537 -267 1123 -337 1714 -205 261
58 603 204 828 353 389 259 688 599 893 1016 125 255 196 484 241 775 24 161
24 539 0 700 -74 476 -262 909 -552 1265 -227 279 -519 512 -846 674 -431 214
-903 304 -1374 260z m1445 -933 c0 -1 -154 -619 -342 -1372 -334 -1337 -342
-1371 -342 -1471 -1 -88 2 -105 20 -130 30 -39 73 -62 139 -73 32 -5 60 -11
62 -14 2 -2 1 -20 -2 -39 l-7 -34 -241 1 c-203 0 -254 -2 -317 -18 -104 -25
-200 -33 -200 -15 0 8 9 48 20 89 11 41 20 78 20 82 0 4 -30 -16 -67 -44 -80
-60 -180 -109 -278 -133 -98 -25 -362 -26 -459 -2 -206 52 -342 187 -397 394
-72 268 29 798 212 1118 186 325 480 552 804 620 104 22 348 26 425 6 75 -19
148 -52 187 -85 l32 -27 10 38 c74 279 174 702 178 753 11 138 -34 200 -160
220 l-74 12 10 41 10 40 166 -7 c179 -7 307 2 431 33 67 17 160 27 160 17z"/>
<path d="M2549 3041 c-203 -65 -401 -274 -520 -551 -71 -166 -147 -426 -185
-635 -20 -115 -29 -353 -16 -425 39 -205 151 -314 322 -314 63 0 86 5 140 30
139 66 251 174 339 329 42 72 53 112 193 673 165 660 162 638 109 747 -37 74
-91 118 -179 145 -78 24 -130 25 -203 1z"/>
</g>
</svg>
